<svg width="94" height="44" viewBox="0 0 94 44" fill="none" xmlns="http://www.w3.org/2000/svg">
<g clip-path="url(#clip0_648_201)">
<mask id="mask0_648_201" style="mask-type:luminance" maskUnits="userSpaceOnUse" x="0" y="0" width="94" height="44">
<path d="M94 0H0V44H94V0Z" fill="white"/>
</mask>
<g mask="url(#mask0_648_201)">
<path d="M10.3021 40.1728C8.69228 38.7864 7.27273 37.1694 6.17851 35.3443C5.08977 33.525 4.33989 31.5182 3.94111 29.4387C3.60257 27.6706 3.5114 25.8626 3.60481 24.0684C3.63316 23.5253 3.7604 22.8618 4.1012 22.4946C4.54893 22.014 5.24888 21.5047 5.84801 21.4957C6.70226 21.4854 6.89553 22.3013 6.96833 23.1185C7.93145 34.1754 10.8916 36.3744 17.8112 43.4647C17.099 44.5168 11.4418 41.1549 10.3021 40.1728Z" fill="url(#paint0_linear_648_201)"/>
<path d="M81.1193 0.967704C86.9933 1.30592 86.8935 3.55588 81.433 3.56619C76.2728 3.57746 70.8977 4.22071 66.267 6.49933C60.8758 9.15225 60.0521 6.39368 63.2294 4.49289C68.495 1.34971 74.9952 0.643658 81.1193 0.967704Z" fill="url(#paint1_linear_648_201)"/>
<path d="M87.4149 14.1706C93.1047 13.7119 86.6131 24.3716 85.7953 25.8398C84.7317 27.7467 82.4224 30.7421 81.2429 32.5842C81.0989 32.5259 84.3703 14.4045 87.4149 14.1706Z" fill="url(#paint2_linear_648_201)"/>
<path d="M89.4225 24.0311C89.8184 23.2977 90.3789 21.6085 91.5758 21.7435C93.0727 21.911 92.7912 24.2708 92.3702 25.2242C90.7209 28.9356 88.8127 30.0688 85.3516 32.3445C86.6352 30.0266 88.9087 24.9839 89.4225 24.0311Z" fill="url(#paint3_linear_648_201)"/>
<path d="M54.5786 1.17408C57.3357 -1.03895 59.5654 5.71927 53.4595 7.91724C37.6345 13.6213 33.3606 11.715 21.7935 12.3147C20.3446 12.3894 18.8953 12.512 17.4478 12.5803C16.6171 12.619 16.1373 13.0354 16.1157 13.8342C16.0842 14.9964 16.2666 14.9369 16.437 16.0813C16.4887 16.4174 17.239 16.9242 17.6333 16.8928C20.5217 16.6644 27.3441 16.3401 30.2212 15.9993C31.2178 15.8823 32.2008 15.6456 33.187 15.4456C34.0642 15.2673 34.4414 15.5969 34.4859 16.5012C34.5992 18.7897 33.0267 20.6943 30.4429 21.1409C28.0635 21.5544 21.7283 21.8761 19.3316 22.1702C17.2929 22.4214 17.3099 22.4324 17.6362 24.4778C18.9022 32.3921 21.4221 35.3505 25.5689 39.9866C28.5808 42.335 25.644 44.0306 23.7036 43.6262C20.834 43.0274 17.7755 39.6674 16.2935 37.3489C12.3641 31.2024 10.4022 23.2875 10.0933 15.2815C10.0221 13.4001 4.94276 17.1493 3.1919 19.0286C-0.412545 22.8952 -0.316442 16.7286 0.46436 15.51C2.44726 12.4169 5.2698 10.4465 8.59229 9.12623C13.2195 7.28986 18.07 7.009 22.98 7.25123C30.9802 7.64993 48.2164 6.27497 54.5786 1.17408ZM26.0728 28.052C30.18 26.7806 27.0893 31.5185 32.3775 35.7034C33.5226 36.6124 33.9182 37.293 33.4927 38.261C33.0501 39.2747 31.9761 39.778 30.6568 39.5129C26.7322 38.7227 24.867 34.2176 23.8833 30.5813C23.5554 29.3599 23.8498 28.8789 25.0757 28.3948C25.4023 28.2643 25.7365 28.1564 26.0728 28.052ZM31.9058 28.0159C32.0638 23.8199 35.201 19.7246 39.9507 21.9709C41.0858 22.5433 42.1452 23.1698 42.8384 24.302C43.4959 25.3514 43.2583 26.7759 42.3814 27.6291C40.8768 29.116 38.2669 29.7213 36.1011 30.0637C36.3842 33.0593 41.0871 31.8556 43.0903 30.4944C43.8062 30.2904 44.5653 30.6849 44.7632 31.3713C45.0038 32.1921 44.2393 32.8394 43.6421 33.3625C41.5083 35.2346 34.5287 36.29 32.9849 32.7893C32.3021 31.2542 31.8784 29.6721 31.9058 28.0159ZM48.9097 19.5334C50.6079 18.5291 55.561 17.9883 56.4487 20.1487C56.767 20.9272 56.1416 24.4184 54.2212 24.6311C53.1985 24.6466 51.6091 24.8584 51.6235 23.6311C51.6236 23.059 51.9844 22.6417 50.9243 23.0618C50.0746 23.4122 49.6597 23.9145 49.6743 24.5579C49.6743 24.8119 49.7788 25.0764 49.981 25.3479C50.7408 26.3709 54.8186 25.0766 56.3413 26.7903C56.7806 27.3117 57.1271 27.7279 57.0796 28.4241C57.0812 28.4261 57.0928 31.6074 52.5142 32.6135C50.4515 33.1105 47.298 33.1942 46.7251 30.7366C46.6865 30.622 46.6496 30.501 46.6177 30.3723C46.5858 30.2436 46.5588 30.1126 46.5327 29.9797C46.4609 29.4702 46.6353 29.0326 47.0659 28.6741C47.2489 28.5221 47.4724 28.3987 47.7349 28.3069C47.9961 28.2154 48.2518 28.1619 48.4985 28.1477C48.82 28.1316 49.104 28.1888 49.3472 28.3196C49.5867 28.4506 49.7311 28.6601 49.7788 28.9524C49.9115 30.2678 50.9606 30.6312 52.1372 30.012C52.9634 29.5816 52.6197 28.406 52.1958 28.0256C50.5122 26.4994 47.3801 28.1285 45.9556 26.9407C45.5636 26.6134 45.2961 26.1811 45.1792 25.6477C45.1007 25.3325 45.0783 24.9999 45.1079 24.6448C45.1395 24.2828 45.216 23.9207 45.3374 23.553C45.4614 23.1813 45.623 22.8161 45.8208 22.4602C46.0231 22.1005 46.26 21.7681 46.5347 21.4651C47.1267 20.7658 47.9179 20.1203 48.9097 19.5334ZM70.8198 14.7541C73.9347 11.4064 78.7887 14.0577 78.8443 14.0637C82.9408 16.7978 79.6396 23.8752 77.9243 28.9797C77.2656 30.9391 77.2038 32.7745 73.5288 32.3909C71.1099 32.1344 68.7765 31.094 68.3687 29.0764C67.8874 26.7031 68.2726 24.4113 69.6841 22.4075C70.7954 20.8293 72.4407 20.6024 74.2193 20.9573C75.8796 21.2881 75.9679 21.3251 76.5064 19.76C78.0184 15.3793 73.446 16.2352 73.0357 17.9495C72.1512 20.1622 66.5977 20.4786 70.8198 14.7541ZM77.8833 5.36744C81.6027 5.27403 86.9371 6.33421 90.2427 8.2317C91.3121 8.84532 92.059 9.64475 91.9888 11.0266C91.8965 12.858 90.6583 13.0045 88.937 12.3694C77.7061 8.23913 67.3022 10.9994 65.9917 16.5657C64.9358 21.052 64.5607 23.096 64.4019 30.6965C64.3861 31.4067 64.0986 31.7919 63.4194 32.0081C61.2445 32.6909 59.6758 31.7991 59.2964 29.5559C58.4113 24.3246 59.0457 23.1373 59.5376 18.9563C59.7215 17.3928 59.6969 15.4619 53.438 17.1389C50.463 17.9361 43.8477 18.8924 40.6646 18.2434C39.4335 17.9954 38.2662 14.6435 40.8267 14.3831C55.4953 14.1115 68.3929 5.60973 77.8833 5.36744ZM74.0532 23.5295C72.0769 23.9837 71.4245 26.2789 71.7056 28.0618C71.7468 28.3213 71.813 28.5856 71.9566 28.804C72.2606 29.2662 72.8743 29.3327 73.2212 28.8772C73.365 28.6869 73.4427 28.4511 73.5151 28.2219C73.8495 27.1825 74.3226 26.123 74.522 25.05C74.59 24.6853 74.8172 23.7445 74.3511 23.5315C74.258 23.4912 74.1531 23.5067 74.0532 23.5295ZM39.4829 25.7766C38.8536 25.3453 37.5726 24.704 37.0884 25.0549C36.4248 25.656 36.0582 26.4858 35.9126 27.3655C36.8602 27.0553 37.807 26.7033 38.6148 26.2981C38.8817 26.1567 39.2241 25.971 39.4829 25.7766ZM26.1138 23.4358C26.7839 23.2642 27.4676 23.6698 27.6382 24.3411L27.7446 24.7541C27.9163 25.4257 27.51 26.1088 26.8384 26.2805L24.0991 26.9807C23.4275 27.1511 22.7445 26.7461 22.5728 26.0745L22.4673 25.6624C22.2956 24.9909 22.7012 24.3078 23.3726 24.136L26.1138 23.4358ZM39.7622 25.4983C39.7542 25.5102 39.7458 25.5256 39.7378 25.5452C39.7536 25.5278 39.7702 25.5121 39.7827 25.4944C39.8064 25.4578 39.7941 25.4484 39.7622 25.4983Z" fill="url(#paint4_linear_648_201)"/>
<path d="M50.2317 36.4215C50.125 36.4939 49.9933 36.5339 49.8351 36.5361C49.676 36.5406 49.5101 36.5281 49.3352 36.4997C49.1603 36.4723 48.9796 36.443 48.7921 36.4144C48.6046 36.3873 48.4317 36.3828 48.2716 36.4021C48.1125 36.4237 47.9739 36.4791 47.8499 36.5725C47.7285 36.6669 47.6399 36.8202 47.582 37.0302C47.5159 37.2667 47.55 37.4658 47.6795 37.6294C47.8103 37.7908 47.9888 37.9418 48.2172 38.0803C48.4442 38.2189 48.7022 38.3657 48.9921 38.5191C49.2817 38.6746 49.5523 38.8599 49.8032 39.0815C50.0545 39.3008 50.2725 39.5714 50.451 39.8929C50.6307 40.2156 50.7284 40.6157 50.7454 41.095C50.7625 41.6313 50.6237 42.0984 50.3296 42.4926C50.0365 42.8859 49.6158 43.1929 49.0669 43.4087C48.517 43.6236 47.8499 43.7405 47.0646 43.7553C46.2783 43.7724 45.4022 43.6745 44.433 43.4609C44.2375 43.412 44.0922 43.2747 43.9943 43.046C43.8967 42.8176 43.8477 42.5667 43.8477 42.2894C43.8477 42.0133 43.8944 41.7486 43.9888 41.4973C44.0819 41.2461 44.2181 41.0734 44.3979 40.9839C44.5103 40.9268 44.6465 40.903 44.8002 40.912C44.9558 40.9201 45.1171 40.9304 45.2875 40.9417C45.4579 40.9542 45.6328 40.9497 45.8113 40.9291C45.991 40.9075 46.1647 40.837 46.3354 40.7155C46.4488 40.635 46.5273 40.5371 46.5682 40.4211C46.6079 40.3087 46.6227 40.1963 46.6101 40.0848C46.5979 39.9747 46.5615 39.8745 46.5 39.7804C46.4375 39.687 46.3637 39.6168 46.2738 39.5679C45.916 39.3656 45.6013 39.1668 45.3284 38.9758C45.0556 38.7838 44.8218 38.5918 44.6272 38.3963C44.433 38.1998 44.2784 37.9953 44.1627 37.7804C44.0477 37.5656 43.9672 37.3269 43.9182 37.0666C43.8113 36.4633 43.8603 35.9589 44.0648 35.5521C44.2671 35.1452 44.566 34.8212 44.9558 34.5806C45.3455 34.3406 45.7942 34.1805 46.3035 34.0997C46.8124 34.0179 47.3181 33.9975 47.8229 34.0372C48.3273 34.0781 48.7954 34.1737 49.2328 34.3248C49.667 34.4759 50.0033 34.6679 50.2397 34.9043C50.4101 35.0837 50.5 35.3156 50.509 35.6007C50.5171 35.8861 50.424 36.1589 50.2272 36.4189L50.2317 36.4215Z" fill="white"/>
<path d="M56.3002 34.4188C56.3082 35.0711 56.2912 35.6928 56.2512 36.2871C56.2103 36.8814 56.1784 37.4415 56.1536 37.9653C56.1298 38.4893 56.1276 38.978 56.1469 39.4244C56.1662 39.8722 56.2387 40.2745 56.3591 40.6323C56.4001 40.7541 56.5115 40.8198 56.69 40.8289C56.8694 40.8369 57.0717 40.8289 57.2991 40.7983C57.5275 40.7712 57.7616 40.7438 58 40.72C58.2409 40.6939 58.441 40.711 58.6046 40.7686C58.6365 40.7857 58.69 40.8881 58.765 41.0801C58.8388 41.2711 58.8923 41.4972 58.9287 41.7575C58.9647 42.0174 58.9602 42.2835 58.9161 42.5563C58.8716 42.8289 58.7525 43.0505 58.5556 43.2209C58.507 43.2698 58.3434 43.321 58.0615 43.3745C57.781 43.4276 57.4421 43.4721 57.0433 43.5085C56.6455 43.5449 56.2194 43.5719 55.7671 43.5868C55.3161 43.6016 54.8945 43.5939 54.5048 43.5575C54.115 43.5211 53.7797 43.455 53.5036 43.3607C53.2263 43.2676 53.0707 43.1313 53.0388 42.9529C53.015 42.814 52.9898 42.5856 52.966 42.2687C52.9435 41.9504 52.9196 41.5778 52.9003 41.1516C52.8787 40.7245 52.8639 40.2597 52.8514 39.7553C52.8388 39.2505 52.832 38.7448 52.832 38.2403C52.832 37.7359 52.8365 37.2473 52.8446 36.7744C52.8536 36.3041 52.8639 35.8825 52.881 35.512C52.8981 35.1403 52.9219 34.8404 52.9538 34.6085C52.9853 34.3756 53.0262 34.2529 53.0752 34.2358C53.1412 34.2097 53.2649 34.1872 53.4479 34.163C53.6309 34.1382 53.8421 34.1166 54.0831 34.0951C54.3231 34.0757 54.573 34.0654 54.832 34.0654C55.0923 34.0654 55.331 34.0757 55.5455 34.0951C55.7616 34.1166 55.9401 34.153 56.0831 34.2052C56.2252 34.2587 56.2957 34.3293 56.2957 34.4188H56.3002Z" fill="white"/>
<path d="M63.8316 40.765C63.8316 40.9605 63.9192 41.1035 64.0941 41.1934C64.268 41.2829 64.4623 41.3206 64.6726 41.308C64.8839 41.2955 65.0795 41.2352 65.2589 41.1251C65.4373 41.0136 65.5362 40.8626 65.5533 40.667C65.5761 40.399 65.5952 40.1468 65.6077 39.9104C65.6216 39.674 65.6248 39.4398 65.6216 39.2037C65.6171 38.9673 65.6055 38.716 65.5906 38.448C65.5736 38.1787 65.5465 37.874 65.5056 37.5309C65.4827 37.3286 65.3806 37.1821 65.2009 37.0922C65.0224 37.0023 64.826 36.9627 64.6159 36.9708C64.4043 36.9798 64.2114 37.0333 64.0361 37.1309C63.8612 37.2285 63.7659 37.3673 63.7488 37.5467C63.7317 37.8228 63.725 38.1343 63.7295 38.4796C63.734 38.8239 63.7443 39.157 63.7591 39.4739C63.7762 39.7909 63.7907 40.0705 63.8077 40.3092C63.8248 40.5501 63.8316 40.7012 63.8316 40.7672V40.765ZM64.7351 34.2228C65.3374 34.2547 65.8464 34.323 66.2668 34.4251C66.6862 34.5276 67.035 34.6751 67.3168 34.8638C67.5974 35.0558 67.8168 35.2945 67.9749 35.5773C68.1327 35.8637 68.2542 36.2048 68.3351 36.6026C68.4156 37.0014 68.4668 37.4617 68.4884 37.9809C68.5077 38.5024 68.518 39.0887 68.518 39.7387C68.518 40.5604 68.4587 41.2253 68.3408 41.7342C68.2236 42.2431 68.0213 42.6432 67.7362 42.9354C67.4509 43.2298 67.0714 43.4295 66.594 43.5409C66.117 43.6511 65.5227 43.7091 64.8066 43.7171C64.0999 43.7342 63.484 43.692 62.9648 43.5899C62.4429 43.4875 62.0078 43.2887 61.6589 42.9911C61.3091 42.6944 61.0408 42.2841 60.8533 41.758C60.6658 41.233 60.5489 40.5559 60.5 39.7252C60.451 38.7991 60.4784 37.9832 60.5853 37.2774C60.692 36.5752 60.9068 35.989 61.2328 35.5206C61.5591 35.0513 62.0055 34.7092 62.575 34.4899C63.1432 34.2695 63.8635 34.181 64.7351 34.2206V34.2228Z" fill="white"/>
<path d="M70.4443 34.2849C70.5171 34.253 70.7126 34.2268 71.0296 34.212C71.3478 34.195 71.7228 34.185 72.1521 34.1756C72.5828 34.1679 73.0454 34.1631 73.5375 34.1631C74.0294 34.1631 74.4897 34.1702 74.9181 34.1824C75.3453 34.195 75.7079 34.2098 76.0101 34.2314C76.3113 34.253 76.4942 34.2781 76.5603 34.31C76.6169 34.3428 76.6646 34.4211 76.701 34.5429C76.7361 34.6643 76.7671 34.8109 76.7864 34.9813C76.8067 35.152 76.8157 35.3349 76.8157 35.5314C76.8157 35.727 76.8112 35.9167 76.8034 36.0996C76.7941 36.2826 76.7793 36.4427 76.76 36.5815C76.7384 36.72 76.7181 36.8176 76.6943 36.8746C76.6624 36.9642 76.5625 37.0199 76.3966 37.0392C76.2294 37.0608 76.0442 37.0689 75.8397 37.0689C75.6351 37.0689 75.4396 37.0644 75.2476 37.0563C75.0557 37.0473 74.9191 37.0563 74.8386 37.0792C74.7989 37.0963 74.7725 37.1951 74.7603 37.3781C74.7477 37.561 74.7455 37.7994 74.7532 38.0916C74.7626 38.386 74.7748 38.7178 74.7964 39.0927C74.8157 39.4676 74.8386 39.8484 74.8624 40.2404C74.8853 40.6301 74.9113 41.0141 74.9352 41.3894C74.9577 41.7643 74.9748 42.1029 74.9842 42.4076C74.9919 42.712 74.9919 42.9632 74.9842 43.1575C74.9748 43.353 74.9555 43.4654 74.9217 43.4982C74.8498 43.5643 74.683 43.6039 74.4272 43.6187C74.1715 43.6358 73.8806 43.6403 73.5546 43.6381C73.2283 43.6335 72.9001 43.6187 72.5728 43.5962C72.242 43.572 71.9763 43.5472 71.774 43.5234C71.6351 43.5063 71.5398 43.3459 71.4863 43.0415C71.4329 42.7371 71.4045 42.3541 71.401 41.8938C71.3965 41.4335 71.4135 40.9371 71.4499 40.4053C71.4863 39.8722 71.5227 39.371 71.5601 38.903C71.5965 38.4346 71.6284 38.0381 71.6522 37.7121C71.6751 37.3858 71.6796 37.1984 71.6648 37.1494C71.641 37.0779 71.5579 37.0325 71.4193 37.0154C71.2818 36.9983 71.1307 36.9883 70.968 36.979C70.8067 36.9713 70.6488 36.9597 70.4978 36.9497C70.3467 36.9371 70.2443 36.903 70.1863 36.845C70.1467 36.8054 70.1206 36.7155 70.108 36.5767C70.0955 36.4382 70.0909 36.2791 70.0954 36.0951C70.099 35.9122 70.1125 35.7166 70.1305 35.5098C70.1499 35.303 70.1786 35.1111 70.2101 34.9371C70.242 34.7622 70.2784 34.6131 70.3206 34.4916C70.3615 34.3702 70.4011 34.2997 70.442 34.2849H70.4443Z" fill="white"/>
<path d="M85.0562 36.4215C84.9493 36.4939 84.8175 36.5339 84.6594 36.5361C84.5002 36.5406 84.3343 36.5281 84.1594 36.4997C83.9845 36.4723 83.8038 36.443 83.6164 36.4144C83.4289 36.3873 83.2562 36.3828 83.0958 36.4021C82.9367 36.4237 82.7982 36.4791 82.6742 36.5725C82.5527 36.6669 82.4642 36.8202 82.4062 37.0302C82.3401 37.2667 82.3743 37.4658 82.5038 37.6294C82.6346 37.7908 82.813 37.9418 83.0414 38.0803C83.2685 38.2189 83.5265 38.3657 83.8164 38.5191C84.106 38.6746 84.3765 38.8599 84.6278 39.0815C84.8787 39.3008 85.0971 39.5714 85.2752 39.8929C85.455 40.2156 85.5526 40.6157 85.5696 41.095C85.5867 41.6313 85.4482 42.0984 85.1538 42.4926C84.8607 42.8859 84.44 43.1929 83.8914 43.4087C83.3413 43.6236 82.6742 43.7405 81.8892 43.7553C81.1026 43.7724 80.2264 43.6745 79.2572 43.4609C79.062 43.412 78.9174 43.2747 78.8188 43.046C78.7209 42.8176 78.6719 42.5667 78.6719 42.2894C78.6719 42.0133 78.7186 41.7486 78.813 41.4973C78.9061 41.2461 79.0427 41.0734 79.2221 40.9839C79.3345 40.9268 79.4711 40.903 79.6244 40.912C79.78 40.9201 79.9414 40.9304 80.1118 40.9417C80.2822 40.9542 80.4574 40.9497 80.6355 40.9291C80.8153 40.9075 80.9892 40.837 81.1596 40.7155C81.2733 40.635 81.3516 40.5371 81.3925 40.4211C81.4321 40.3087 81.4469 40.1963 81.4347 40.0848C81.4221 39.9747 81.3857 39.8745 81.3242 39.7804C81.2617 39.687 81.1879 39.6168 81.0981 39.5679C80.7402 39.3656 80.4255 39.1668 80.1527 38.9758C79.8802 38.7838 79.646 38.5918 79.4518 38.3963C79.2572 38.1998 79.1029 37.9953 78.9869 37.7804C78.8719 37.5656 78.7914 37.3269 78.7425 37.0666C78.6358 36.4633 78.6845 35.9589 78.889 35.5521C79.0913 35.1452 79.3902 34.8212 79.78 34.5806C80.1697 34.3406 80.6188 34.1805 81.1277 34.0997C81.6367 34.0179 82.1424 33.9975 82.6471 34.0372C83.1516 34.0781 83.6196 34.1737 84.0573 34.3248C84.4912 34.4759 84.8275 34.6679 85.0652 34.9043C85.2343 35.0837 85.3242 35.3156 85.3332 35.6007C85.3413 35.8861 85.2482 36.1589 85.0514 36.4189L85.0562 36.4215Z" fill="white"/>
</g>
</g>
<defs>
<linearGradient id="paint0_linear_648_201" x1="5.17262" y1="21.4956" x2="15.8035" y2="43.859" gradientUnits="userSpaceOnUse">
<stop stop-color="#71ABFF"/>
<stop offset="1" stop-color="#223F69"/>
</linearGradient>
<linearGradient id="paint1_linear_648_201" x1="61.3711" y1="5.86484" x2="84.8724" y2="0.00249695" gradientUnits="userSpaceOnUse">
<stop stop-color="#DA003F"/>
<stop offset="1" stop-color="#740022"/>
</linearGradient>
<linearGradient id="paint2_linear_648_201" x1="85.4836" y1="14.1562" x2="81.9819" y2="32.7811" gradientUnits="userSpaceOnUse">
<stop stop-color="#8200FF"/>
<stop offset="1" stop-color="#3F007C"/>
</linearGradient>
<linearGradient id="paint3_linear_648_201" x1="92.5803" y1="21.7358" x2="86.4344" y2="32.873" gradientUnits="userSpaceOnUse">
<stop stop-color="#4DC059"/>
<stop offset="1" stop-color="#123D17"/>
</linearGradient>
<linearGradient id="paint4_linear_648_201" x1="46.0084" y1="0.734862" x2="46.0084" y2="43.686" gradientUnits="userSpaceOnUse">
<stop stop-color="#FADB26"/>
<stop offset="1" stop-color="#FF6201"/>
</linearGradient>
<clipPath id="clip0_648_201">
<rect width="94" height="44" fill="white"/>
</clipPath>
</defs>
</svg>
